<?xml version="1.0" encoding="UTF-8"?>
<!DOCTYPE svg PUBLIC "-//W3C//DTD SVG 1.1//EN" "http://www.w3.org/Graphics/SVG/1.1/DTD/svg11.dtd">
<!-- Creator: CorelDRAW X7 -->
<svg xmlns="http://www.w3.org/2000/svg" xml:space="preserve" width="6.39999in" height="1.32666in" version="1.1" style="shape-rendering:geometricPrecision; text-rendering:geometricPrecision; image-rendering:optimizeQuality; fill-rule:evenodd; clip-rule:evenodd"
viewBox="0 0 6400 1327"
 xmlns:xlink="http://www.w3.org/1999/xlink">
 <defs>
  <style type="text/css">
   <![CDATA[
    .fil0 {fill:black}
   ]]>
  </style>
 </defs>
 <g id="Layer_x0020_1">
  <metadata id="CorelCorpID_0Corel-Layer"/>
  <g id="_783216448">
   <path class="fil0" d="M93 856c0,-26 8,-55 10,-80 7,-59 -5,-43 97,-84 20,-8 42,-17 63,-26 10,-4 21,-9 31,-13 14,-5 15,1 28,11 147,118 309,240 459,357 17,13 95,71 102,82 -11,2 -26,9 -38,14l-196 81c-92,37 -88,54 -183,-25l-330 -253c-6,-5 -8,-7 -15,-12 -14,-11 -28,-41 -28,-52zm483 470l-30 0c-31,-3 -64,-18 -106,-50l-375 -291c-12,-10 -24,-21 -32,-33 -17,-27 -33,-59 -33,-99 0,-30 13,-111 18,-146 11,-85 30,-202 39,-284 22,-205 54,-197 219,-264l345 -142c100,-40 157,-2 230,58l90 70c16,12 31,24 47,37l226 177c58,72 49,112 36,200 -4,29 -7,56 -11,85l-47 341c-8,54 -32,93 -69,120 -31,23 -229,101 -268,116 -48,19 -90,37 -137,56 -59,23 -101,45 -142,49zm414 -270c-8,0 -142,-107 -159,-121 -49,-41 -40,-18 -30,-95l82 -617c26,17 49,37 74,56 14,10 24,18 38,29l148 115c34,37 16,81 10,130l-34 252c-6,54 -15,112 -22,167 -4,25 -17,48 -36,58 -8,4 -64,26 -71,26zm-290 -223l-145 -112c-26,-20 -47,-37 -73,-57l-72 -58c14,-3 28,-10 41,-16l299 -121c-3,7 -12,77 -13,90 -4,30 -9,63 -13,91l-18 135c-2,13 -6,31 -6,48zm-573 -214l18 -135c24,-164 0,-168 104,-210l330 -136c25,-10 91,-41 115,-42 43,-1 77,51 99,57l-24 185c-4,27 3,19 -38,35l-402 165c-35,14 -66,26 -100,40 -19,7 -33,12 -50,20 -18,8 -36,13 -52,21z"/>
   <path class="fil0" d="M5037 783c0,-77 1,-138 24,-206 16,-46 41,-90 86,-111 88,-41 180,5 235,75 8,10 18,17 18,32l0 423c0,39 -29,84 -48,106 -6,7 -12,10 -19,16 -9,7 -14,11 -24,17 -99,53 -185,-13 -227,-114 -27,-65 -45,-149 -45,-238zm273 -577l0 40c91,0 90,4 90,100 0,52 0,104 0,157 -12,-9 -52,-77 -155,-95 -111,-20 -199,30 -266,97 -71,71 -102,189 -102,301 0,147 61,288 174,356 85,50 192,57 280,8 52,-28 67,-68 79,-77 0,41 -32,113 30,113 23,0 73,-26 96,-34 25,-8 73,-27 101,-29l0 -50c-106,0 -90,-4 -90,-210l0 -654c0,-40 11,-103 -30,-103 -33,0 -100,50 -185,66 -11,2 -22,2 -22,14z"/>
   <path class="fil0" d="M2453 1003c0,-46 10,-83 33,-114 53,-72 131,-100 211,-126 13,-4 42,-13 56,-14 0,69 0,138 0,207 1,38 3,32 -15,61 -16,27 -32,55 -56,75 -102,86 -229,47 -229,-89zm-100 -400c0,84 101,102 133,25 23,-54 17,-111 73,-153 35,-25 81,-26 124,-26 50,0 64,46 67,94 3,49 3,102 3,156 -140,33 -453,96 -453,290 0,76 8,112 62,164 40,39 110,53 175,53 53,0 102,-23 134,-45 57,-40 63,-66 89,-95 0,21 -2,61 -5,81 -12,77 40,62 82,46 46,-17 76,-34 130,-46 27,-6 23,-2 23,-44 0,-21 -19,-3 -59,-11 -16,-3 -28,-17 -30,-33l-1 -380c0,-196 -33,-276 -227,-276 -82,0 -154,22 -209,51 -46,24 -111,81 -111,149z"/>
   <path class="fil0" d="M5867 766c0,-88 14,-207 59,-264 72,-91 205,-64 268,83 53,121 60,348 9,474 -56,138 -227,125 -294,-43 -7,-17 -13,-35 -18,-54 -18,-66 -24,-124 -24,-196zm533 18l0 23c-1,50 -10,100 -26,149 -28,83 -87,167 -164,207 -63,32 -92,40 -170,40 -44,0 -83,-14 -113,-27 -34,-15 -61,-31 -86,-54 -8,-8 -13,-10 -20,-17 -7,-7 -7,-10 -15,-18 -122,-123 -137,-407 -4,-565 13,-16 19,-24 35,-36l40 -30c26,-18 63,-35 97,-43 115,-26 235,10 310,85 24,25 43,45 60,77 36,64 54,136 56,209z"/>
   <path class="fil0" d="M4303 733c0,-85 30,-211 96,-255 9,-7 28,-17 39,-21 9,-3 42,-8 51,-7 37,3 62,12 84,33 64,63 74,191 74,280l-344 0 0 -30zm-163 56c0,106 21,226 94,299 32,33 58,58 101,79 100,47 245,53 336,-14 64,-48 110,-134 72,-134 -56,0 -38,0 -64,43 -8,13 -26,37 -37,46 -65,55 -160,61 -229,11 -87,-62 -110,-198 -110,-310l427 0c98,0 52,-185 33,-226 -26,-59 -63,-103 -118,-136 -179,-105 -408,-14 -480,197 -14,40 -25,93 -25,145z"/>
   <path class="fil0" d="M1613 773c0,139 15,211 96,314 110,141 378,161 474,18 66,-99 23,-86 -20,-86 -15,0 -16,24 -28,48 -55,107 -277,156 -343,-106 -25,-102 -29,-235 -3,-336 24,-93 80,-183 194,-173 116,11 83,147 100,181 20,39 74,49 112,18 7,-7 1,-1 8,-9 55,-65 -23,-176 -113,-212 -145,-59 -321,-15 -408,118 -35,54 -69,137 -69,225z"/>
   <path class="fil0" d="M3037 479c0,70 8,18 63,40 16,6 27,21 27,44l0 533c0,48 -90,34 -90,57l0 33c55,0 99,-3 153,-3 60,0 109,3 170,3l0 -43c-24,-1 -87,-13 -87,-50l0 -450c0,-23 35,-84 46,-98 34,-41 85,-71 134,-42 26,16 37,60 87,60 79,0 97,-99 39,-137 -70,-45 -172,-25 -240,28 -52,41 -71,95 -86,105 8,-31 12,-73 17,-106 17,-110 -102,-13 -188,8 -26,7 -45,5 -45,18z"/>
   <path class="fil0" d="M3647 429c0,45 -3,40 80,40l0 487c0,138 27,243 183,243 47,0 120,-32 136,-54 9,-12 4,-44 4,-62 -15,10 -23,23 -41,35 -54,35 -132,21 -132,-62l0 -587 153 0c28,0 23,-20 23,-36 0,-8 -5,-10 -10,-17l-170 0c9,-17 4,-123 4,-160 0,-54 12,-47 -64,-47 0,42 -21,114 -43,150 -50,84 -123,40 -123,70z"/>
  </g>
 </g>
</svg>
